HIERARCHY
ROOT Hips
{
  OFFSET -13.859 91.1892 21.8595
  CHANNELS 6 Xposition Yposition Zposition Zrotation Xrotation Yrotation
  JOINT Spine
  {
    OFFSET 10.8089 -0.851415 0
    CHANNELS 3 Zrotation Xrotation Yrotation
    JOINT Spine1
    {
      OFFSET 18.8753 3.80116 0
      CHANNELS 3 Zrotation Xrotation Yrotation
      JOINT Spine2
      {
        OFFSET 13.4073 0.420477 0
        CHANNELS 3 Zrotation Xrotation Yrotation
        JOINT LeftShoulder
        {
          OFFSET 11.8837 -2.73209 -3.78198
          CHANNELS 3 Zrotation Xrotation Yrotation
          JOINT LeftArm
          {
            OFFSET 15.7849 0 0
            CHANNELS 3 Zrotation Xrotation Yrotation
            JOINT LeftForeArm
            {
              OFFSET 30.3399 0 0
              CHANNELS 3 Zrotation Xrotation Yrotation
              JOINT LeftHand
              {
                OFFSET 26.9751 0 0
                CHANNELS 3 Zrotation Xrotation Yrotation
                End Site
                {
                  OFFSET 8 0 0
                }
              }
            }
          }
        }
        JOINT RightShoulder
        {
          OFFSET 11.8838 -2.7321 3.782
          CHANNELS 3 Zrotation Xrotation Yrotation
          JOINT RightArm
          {
            OFFSET -15.7848 0 0
            CHANNELS 3 Zrotation Xrotation Yrotation
            JOINT RightForeArm
            {
              OFFSET -30.34 0 0
              CHANNELS 3 Zrotation Xrotation Yrotation
              JOINT RightHand
              {
                OFFSET -26.9752 2.55532e-05 0
                CHANNELS 3 Zrotation Xrotation Yrotation
                End Site
                {
                  OFFSET -8 0 0
                }
              }
            }
          }
        }
        JOINT Neck
        {
          OFFSET 16.5588 -0.355317 0
          CHANNELS 3 Zrotation Xrotation Yrotation
          JOINT Head
          {
            OFFSET 9.28362 0.364158 0
            CHANNELS 3 Zrotation Xrotation Yrotation
            End Site
            {
              OFFSET 5.28361 0.364157 0
            }
          }
        }
      }
    }
  }
  JOINT LeftUpLeg
  {
    OFFSET -1.44882 -0.531424 -9.00581
    CHANNELS 3 Zrotation Xrotation Yrotation
    JOINT LeftLeg
    {
      OFFSET -42.572 0 0
      CHANNELS 3 Zrotation Xrotation Yrotation
      JOINT LeftFoot
      {
        OFFSET -40.1967 0 0
        CHANNELS 3 Zrotation Xrotation Yrotation
        JOINT LeftToe
        {
          OFFSET -10.4538 -16.5779 0.0801573
          CHANNELS 3 Zrotation Xrotation Yrotation
          End Site
          {
            OFFSET 3 0 0
          }
        }
      }
    }
  }
  JOINT RightUpLeg
  {
    OFFSET -1.44865 -0.531428 9.0058
    CHANNELS 3 Zrotation Xrotation Yrotation
    JOINT RightLeg
    {
      OFFSET 42.5723 0 0
      CHANNELS 3 Zrotation Xrotation Yrotation
      JOINT RightFoot
      {
        OFFSET 40.1968 0 -1.14441e-05
        CHANNELS 3 Zrotation Xrotation Yrotation
        JOINT RightToe
        {
          OFFSET 10.4538 16.5778 -0.0801582
          CHANNELS 3 Zrotation Xrotation Yrotation
          End Site
          {
            OFFSET -3 0 0
          }
        }
      }
    }
  }
}
MOTION
Frames:	18
Frame Time:	0.0333333
4.18202 92.9851 -158.667 112.631 -87.7875 23.825 -7.5329 -0.380756 -1.43571 13.2826 -1.42748 -2.60517 1.99651 -1.55209 -2.53292 -6.48838 29.8783 97.4938 -52.3727 4.35664 81.7233 -30.1498 -4.08466 -13.3308 -21.4749 -74.1353 -14.4762 173.656 29.5699 96.8073 -21.3545 14.6653 81.2326 -16.3603 -5.54958 -8.9525 -8.90407 -55.9296 -5.10396 -13.4465 -2.08485 7.06905 -10.4153 -9.18037 -1.12091 11.1977 8.28131 -4.48789 -64.488 -2.43123 -5.69174 -34.4572 -9.68773 -9.58462 -91.8836 0.00394553 0.00895438 -157.167 8.7858 4.50372 -38.3899 -5.07622 -2.42483 -2.65979 2.52174 -0.29454 -91.8836 0.00394166 0.00895438 
3.98807 93.8568 -153.082 -177.355 -88.9986 94.5381 -7.46988 0.0737012 -1.47223 13.4154 -0.564224 -2.89341 2.12785 -0.703792 -2.86267 -6.56229 29.9054 97.6188 -51.2509 5.68507 83.0388 -28.6023 -4.27512 -12.6306 -18.7578 -71.6893 -11.5647 173.578 29.482 96.8725 -23.7471 12.7911 81.1013 -16.5522 -5.53221 -9.08241 -8.84694 -56.1069 -5.18977 -14.4067 -1.95898 6.84383 -10.5313 -8.9415 -0.89434 17.8595 10.0888 -5.86526 -69.0091 -1.84025 -5.79431 -18.6768 -8.98773 -5.77461 -91.8836 0.00394553 0.00895438 -162.377 8.29193 5.73954 -36.1562 -5.3778 -2.27621 -0.0893032 2.04208 -0.555979 -91.8836 0.00394166 0.00895438 
3.75294 94.1522 -147.634 -171.016 -89.215 101.361 -7.40974 0.243641 -1.47643 13.5394 -0.237916 -2.98303 2.25147 -0.382219 -2.96799 -6.57936 29.9062 97.6642 -52.0843 7.33461 84.1366 -27.3528 -4.43612 -12.034 -18.3705 -71.1123 -11.0859 173.679 29.3508 96.7692 -29.5836 11.5145 81.8864 -18.812 -5.3006 -10.2742 -10.7289 -61.9311 -6.97174 -14.2344 -2.16907 6.84322 -11.197 -9.28918 -1.14843 24.1113 9.9186 -6.64137 -69.7155 -1.60316 -5.5641 -11.2582 -6.02939 -3.41113 -91.8836 0.00394553 0.00895438 -166.651 7.63899 6.81792 -34.9093 -5.54791 -2.22653 2.45536 3.56929 -0.367697 -91.8836 0.00394166 0.00895438 
3.56323 93.9837 -142.468 -107.26 -88.4921 165.988 -7.34391 0.601299 -1.496 13.6802 0.444982 -3.19349 2.39172 0.289687 -3.21126 -6.57648 29.8936 97.7115 -53.6275 9.48874 85.1682 -25.9368 -4.67554 -11.3413 -19.9792 -73.2183 -13.0359 173.814 29.2175 96.5999 -34.3167 10.3542 82.172 -21.1725 -5.06046 -11.4071 -12.1065 -65.569 -8.95214 -14.1461 -2.13051 6.5946 -11.4586 -9.27661 -1.26309 30.1003 10.089 -7.75383 -67.8655 -1.67948 -5.14245 -6.76396 -1.5774 -1.46456 -91.8836 0.00394553 0.00895438 -170.542 6.3769 8.24472 -33.5714 -5.71092 -2.15516 4.2374 4.65912 -0.333794 -91.8836 0.00394166 0.00895438 
3.48777 93.8587 -137.205 -94.8347 -87.4243 179.29 -7.37314 0.949225 -1.5415 13.6326 1.09902 -3.44964 2.34372 0.930566 -3.49877 -6.53918 29.8474 97.6839 -53.6316 10.9576 85.8629 -25.3908 -4.81335 -11.0388 -15.2027 -68.5797 -8.43051 173.927 29.0493 96.4005 -38.5815 8.56827 81.8981 -23.8555 -4.71473 -12.7668 -13.4413 -67.8242 -10.0398 -13.6794 -2.37747 6.43909 -11.1258 -9.89802 -1.3398 34.4128 9.44365 -8.4139 -62.7335 -2.24331 -4.48879 -1.87058 2.31829 -0.389283 -91.8836 0.00394553 0.00895438 -175.336 4.64608 9.45794 -30.5077 -5.98342 -1.84161 5.44714 5.98717 -0.298992 -91.8836 0.00394166 0.00895438 
3.44171 93.6538 -132 -82.6342 -86.7616 -167.89 -7.29552 1.15239 -1.61665 13.7947 1.45454 -3.69457 2.50538 1.2738 -3.76061 -6.4455 29.8686 97.5776 -54.436 13.069 87.4901 -25.1553 -4.8572 -10.8748 -17.7326 -69.1504 -10.6238 174.07 28.9294 96.1507 -42.9802 7.38515 80.7883 -26.9207 -4.28772 -14.2441 -16.0821 -71.1905 -12.6132 -13.6918 -2.31271 6.36121 -10.1208 -9.86473 -1.15218 37.5954 7.8848 -8.63079 -54.3337 -3.16339 -3.47751 -2.3107 4.91649 0.418441 -91.8836 0.00394553 0.00895438 179.911 3.79815 10.1635 -26.6986 -6.2662 -1.38943 6.18739 7.50067 -0.260067 -91.8836 0.00394166 0.00895438 
3.38386 93.458 -126.744 -75.5219 -85.6111 -160.055 -7.24395 1.45416 -1.65529 13.9105 2.01948 -3.9169 2.6212 1.82734 -4.01003 -6.4377 29.8774 97.6021 -53.9536 14.1093 88.1092 -23.8464 -4.96289 -10.2943 -17.4192 -68.2063 -10.1431 174.201 28.7762 95.932 -46.2714 5.85155 79.4954 -29.6193 -3.88549 -15.5422 -18.4975 -72.8105 -14.6618 -13.0944 -2.48935 6.64814 -11.1391 -9.92036 -1.91629 39.4557 4.71886 -8.83546 -43.0867 -4.18441 -2.01033 -7.05337 6.60084 1.66 -91.8836 0.00394553 0.00895438 174.671 2.49826 10.6219 -21.1297 -6.59741 -0.539688 5.58027 8.37848 -0.16994 -91.8836 0.00394166 0.00895438 
3.35754 93.1515 -121.405 -72.3222 -83.224 -156.41 -7.05963 1.97275 -1.63216 14.3053 3.02988 -4.12944 3.01722 2.82628 -4.27123 -6.36234 29.9211 97.5436 -52.1213 15.6937 88.916 -22.9069 -5.0186 -9.84375 -16.7175 -67.4135 -9.30844 174.288 28.7204 95.7503 -48.3051 4.33838 77.9969 -31.5541 -3.45753 -16.4804 -18.2554 -74.0471 -15.0159 -12.8171 -2.63411 6.43104 -10.975 -10.3857 -1.78459 40.0621 -0.170675 -9.32899 -32.5377 -4.8676 -0.438271 -9.06446 8.95086 3.03652 -91.8836 0.00394553 0.00895438 169.509 1.36789 9.72229 -14.9525 -6.85879 0.603637 3.95928 6.80631 -0.318003 -91.8836 0.00394166 0.00895438 
3.4271 92.8596 -115.777 -73.2998 -81.1243 -157.1 -7.02372 2.41281 -1.57424 14.4024 3.90988 -4.23472 3.11641 3.70014 -4.41906 -6.42397 29.9872 97.6038 -48.1527 16.4796 88.7184 -21.1442 -5.11677 -9.07744 -15.7125 -65.8375 -8.10887 174.301 28.7076 95.6707 -49.0394 2.34564 76.6856 -32.6345 -3.24298 -17.0126 -18.6005 -74.2754 -15.3245 -12.3775 -2.553 6.38885 -10.8088 -10.2651 -1.90628 39.8389 -6.08474 -9.57591 -26.8235 -5.14231 0.547793 -3.49864 14.3057 3.84248 -91.8836 0.00394553 0.00895438 164.867 0.00890637 8.22675 -10.4222 -6.97967 1.45588 1.1237 4.14593 -0.540406 -91.8836 0.00394166 0.00895438 
3.76625 92.34 -109.749 -75.7654 -80.0919 -160.054 -7.00871 2.58897 -1.44203 14.4422 4.31534 -4.06576 3.15816 4.11331 -4.27005 -6.48932 30.0671 97.7133 -43.1764 17.5158 88.3102 -19.2073 -5.27996 -8.23078 -13.9829 -63.9724 -6.48241 174.318 28.7315 95.6497 -48.8804 0.928339 76.0312 -32.8385 -3.17641 -17.1599 -18.1614 -73.972 -14.8835 -11.9924 -2.34709 6.56279 -11.7561 -9.74127 -2.09152 39.9527 -1.39039 -10.1006 -25.7417 -5.33932 0.801031 -2.85025 11.7685 2.9913 -91.8836 0.00394553 0.00895438 163.283 -0.0952886 6.51175 -13.7411 -6.98698 0.710549 0.927854 1.12976 -0.995597 -91.8836 0.00394166 0.00895438 
4.23778 91.9684 -103.172 -77.5156 -80.9415 -162.675 -6.97575 2.4742 -1.28302 14.4995 4.1696 -3.70183 3.2162 3.98533 -3.89955 -6.6141 30.1896 97.8616 -38.5336 18.5927 87.3556 -16.8208 -5.39669 -7.20945 -13.0698 -61.4312 -5.33814 174.317 28.8219 95.6589 -47.3589 0.222266 76.0131 -32.6409 -3.21366 -17.0727 -18.6788 -74.3042 -15.5113 -12.3274 -2.37903 6.57227 -12.3215 -9.68973 -2.20866 39.0711 3.02839 -8.95741 -28.6717 -5.32433 0.345701 -4.89676 7.9542 1.93123 -91.8836 0.00394553 0.00895438 162.577 0.729679 5.28046 -19.6072 -6.82432 -0.629292 -2.34527 -0.559059 -1.08442 -91.8836 0.00394166 0.00895438 
4.74393 91.9471 -96.0939 -80.4608 -81.6563 -166.156 -6.83561 2.50503 -1.17483 14.7804 4.27802 -3.51251 3.49808 4.10279 -3.71577 -6.70618 30.3644 97.9634 -36.4447 19.7655 86.3625 -14.8025 -5.53458 -6.31077 -12.1281 -59.0483 -4.37768 174.366 28.985 95.6295 -45.1802 1.07452 76.7297 -32.8248 -3.17033 -17.122 -19.3819 -74.9889 -16.1263 -12.949 -2.74626 6.45396 -13.2304 -10.2566 -2.53086 38.6175 5.64816 -7.69682 -33.5086 -5.14087 -0.50905 -9.78365 3.14583 0.474327 -91.8836 0.00394553 0.00895438 163.352 2.45442 4.38324 -26.1313 -6.50755 -1.81144 -13.0359 -3.26551 -1.99929 -91.8836 0.00394166 0.00895438 
5.51161 91.5577 -89.4473 -83.733 -82.3349 -172.591 -6.80402 2.34101 -0.546374 14.8239 4.26881 -2.21358 3.54491 4.15648 -2.41816 -6.80019 30.4678 98.1387 -33.0934 20.1795 84.7858 -13.5136 -5.58111 -5.74683 -11.3502 -55.3323 -3.30533 174.388 29.0621 95.6292 -42.9553 1.76543 77.9231 -31.8825 -3.34411 -16.687 -18.7337 -74.4965 -15.5156 -13.2858 -2.95511 6.71379 -14.2036 -10.2463 -3.23605 37.3129 10.4629 -4.93767 -38.2267 -5.05605 -1.19996 -10.7045 -0.893356 -1.44915 -91.8836 0.00394553 0.00895438 168.248 4.33639 0.841005 -37.4175 -5.37724 -3.52357 -27.3747 -3.4097 -3.01653 -91.8836 0.00394166 0.00895438 
5.86393 91.5664 -83.3551 -89.283 -82.4868 -179.069 -6.9434 2.22303 -0.355923 14.5353 4.13611 -1.78071 3.25665 4.04492 -1.9794 -6.75114 30.47 98.1995 -31.8545 20.6079 84.0464 -14.1595 -5.59056 -5.97567 -11.2185 -54.8976 -3.26725 174.326 29.0969 95.7403 -41.3014 1.94435 78.8698 -30.0413 -3.66395 -15.8531 -16.4598 -72.5979 -13.3944 -12.5899 -2.87518 7.05649 -15.2242 -9.88773 -3.60577 35.0362 13.3199 -4.05167 -42.838 -4.8825 -1.91173 -6.96331 -3.32949 -2.52149 -91.8836 0.00394553 0.00895438 175.389 4.53426 0.0465112 -51.4172 -3.66456 -5.17873 -31.4686 -2.32285 -2.82138 -91.8836 0.00394166 0.00895438 
6.40321 91.8429 -77.5715 -89.7847 -83.2386 177.811 -7.04937 1.77706 0.0584864 14.2974 3.47526 -0.754068 3.01795 3.43461 -0.921855 -6.79048 30.3764 98.3038 -33.3908 20.0388 84.5082 -14.8307 -5.52606 -6.2643 -12.4008 -58.8449 -4.54527 174.197 29.0931 95.9093 -41.1697 1.52762 79.1799 -27.7713 -4.06415 -14.8394 -15.1112 -70.5066 -11.9007 -12.7097 -2.61257 7.33074 -14.9655 -9.50638 -2.8796 30.9082 14.4193 -0.333152 -44.3325 -4.87994 -2.2772 -3.29354 -3.0538 -2.23812 -91.8836 0.00394553 0.00895438 -175.913 5.58897 -2.71022 -64.4714 -1.90384 -6.1532 -22.9302 0.999008 -0.514772 -91.8836 0.00394166 0.00895438 
6.78815 92.2963 -71.9202 -87.9918 -83.8632 178.61 -7.06632 1.49494 0.18968 14.2532 2.99216 -0.361015 2.97267 2.97115 -0.505799 -7.03025 30.2422 98.5517 -34.0398 17.6879 83.7657 -13.8445 -5.58245 -5.93254 -12.2154 -59.0902 -4.46069 174.054 29.091 96.1206 -39.5866 0.956893 79.7903 -25.5945 -4.41203 -13.8506 -13.7976 -67.7697 -10.2182 -13.0384 -2.40621 7.42326 -15.0799 -9.21411 -2.34938 26.8221 14.5411 1.76132 -44.5655 -4.95968 -2.4258 0.458156 -2.10872 -1.84481 -91.8836 0.00394553 0.00895438 -167.58 5.91435 -3.80919 -71.4437 -0.913558 -6.28814 -16.672 3.22277 0.327205 -91.8836 0.00394166 0.00895438 
7.03182 92.5497 -66.4336 -87.1805 -84.4184 178.869 -7.10089 1.22158 0.160529 14.1791 2.44783 -0.283385 2.89739 2.43121 -0.401798 -7.21711 30.1157 98.7117 -33.4158 14.6298 83.2155 -13.4062 -5.59282 -5.8523 -10.8825 -55.8981 -3.01702 173.983 29.1144 96.2993 -37.2456 1.76159 80.4356 -24.0329 -4.65139 -13.0573 -11.9408 -64.3109 -8.44861 -13.1001 -2.33062 7.72824 -15.8091 -9.10173 -1.86321 22.7784 14.3441 3.25166 -44.5427 -5.02515 -2.55734 3.82939 -1.41607 -1.64109 -91.8836 0.00394553 0.00895438 -160.153 6.38809 -4.57516 -73.8827 -0.648331 -6.07082 -9.08896 3.04306 -0.238233 -91.8836 0.00394166 0.00895438 
7.30806 92.5903 -60.9783 -84.1218 -85.608 -178.846 -7.17004 0.815129 0.169672 14.0347 1.6639 -0.066548 2.75166 1.65871 -0.147157 -7.28453 29.9672 98.7167 -36.1037 11.875 83.4309 -14.469 -5.45742 -6.38551 -11.0647 -54.9506 -2.77606 173.975 29.1369 96.3526 -37.214 3.12607 80.9233 -23.6149 -4.71509 -12.8143 -12.3996 -65.4456 -8.96715 -13.0673 -2.15656 7.7439 -15.8588 -9.00188 -1.18783 18.8015 13.2418 5.26933 -44.3455 -5.07974 -2.67961 7.01231 -0.429996 -1.45951 -91.8836 0.00394553 0.00895438 -153.308 6.75191 -5.69145 -72.5373 -0.844778 -5.64761 -2.59228 2.28748 -0.80715 -91.8836 0.00394166 0.00895438 
